<svg width="114" height="57" viewBox="0 0 114 57" fill="none" xmlns="http://www.w3.org/2000/svg">
<path d="M0.5 24V0.727272H6.77273V9.59091H6.86364C7.09091 9 7.42424 8.45833 7.86364 7.96591C8.30303 7.46591 8.84849 7.06818 9.5 6.77273C10.1515 6.4697 10.9091 6.31818 11.7727 6.31818C12.9242 6.31818 14.0189 6.625 15.0568 7.23864C16.1023 7.85227 16.9508 8.81818 17.6023 10.1364C18.2614 11.4545 18.5909 13.1667 18.5909 15.2727C18.5909 17.2879 18.2765 18.9583 17.6477 20.2841C17.0265 21.6098 16.1932 22.5985 15.1477 23.25C14.1098 23.9015 12.9697 24.2273 11.7273 24.2273C10.9091 24.2273 10.178 24.0947 9.53409 23.8295C8.89773 23.5568 8.35227 23.1894 7.89773 22.7273C7.45076 22.2576 7.10606 21.7273 6.86364 21.1364H6.72727V24H0.5ZM6.63636 15.2727C6.63636 16.1212 6.74621 16.8561 6.96591 17.4773C7.19318 18.0909 7.51136 18.5682 7.92045 18.9091C8.33712 19.2424 8.83333 19.4091 9.40909 19.4091C9.98485 19.4091 10.4735 19.2462 10.875 18.9205C11.2841 18.5871 11.5947 18.1136 11.8068 17.5C12.0265 16.8788 12.1364 16.1364 12.1364 15.2727C12.1364 14.4091 12.0265 13.6705 11.8068 13.0568C11.5947 12.4356 11.2841 11.9621 10.875 11.6364C10.4735 11.303 9.98485 11.1364 9.40909 11.1364C8.83333 11.1364 8.33712 11.303 7.92045 11.6364C7.51136 11.9621 7.19318 12.4356 6.96591 13.0568C6.74621 13.6705 6.63636 14.4091 6.63636 15.2727ZM27.4886 0.727272V24H21.2159V0.727272H27.4886ZM39.0938 24.3182C37.1998 24.3182 35.5786 23.9432 34.2301 23.1932C32.8816 22.4356 31.8475 21.3826 31.1278 20.0341C30.4081 18.678 30.0483 17.1061 30.0483 15.3182C30.0483 13.5303 30.4081 11.9621 31.1278 10.6136C31.8475 9.25758 32.8816 8.20454 34.2301 7.45454C35.5786 6.69697 37.1998 6.31818 39.0938 6.31818C40.9877 6.31818 42.6089 6.69697 43.9574 7.45454C45.3059 8.20454 46.34 9.25758 47.0597 10.6136C47.7794 11.9621 48.1392 13.5303 48.1392 15.3182C48.1392 17.1061 47.7794 18.678 47.0597 20.0341C46.34 21.3826 45.3059 22.4356 43.9574 23.1932C42.6089 23.9432 40.9877 24.3182 39.0938 24.3182ZM39.1392 19.6818C39.6695 19.6818 40.1278 19.5038 40.5142 19.1477C40.9006 18.7917 41.1998 18.2841 41.4119 17.625C41.6241 16.9659 41.7301 16.1818 41.7301 15.2727C41.7301 14.3561 41.6241 13.572 41.4119 12.9205C41.1998 12.2614 40.9006 11.7538 40.5142 11.3977C40.1278 11.0417 39.6695 10.8636 39.1392 10.8636C38.5786 10.8636 38.0975 11.0417 37.696 11.3977C37.2945 11.7538 36.9877 12.2614 36.7756 12.9205C36.5634 13.572 36.4574 14.3561 36.4574 15.2727C36.4574 16.1818 36.5634 16.9659 36.7756 17.625C36.9877 18.2841 37.2945 18.7917 37.696 19.1477C38.0975 19.5038 38.5786 19.6818 39.1392 19.6818ZM59.0938 24.3182C57.1998 24.3182 55.5786 23.9432 54.2301 23.1932C52.8816 22.4356 51.8475 21.3826 51.1278 20.0341C50.4081 18.678 50.0483 17.1061 50.0483 15.3182C50.0483 13.5303 50.4081 11.9621 51.1278 10.6136C51.8475 9.25758 52.8816 8.20454 54.2301 7.45454C55.5786 6.69697 57.1998 6.31818 59.0938 6.31818C60.8059 6.31818 62.2869 6.62879 63.5369 7.25C64.7945 7.86364 65.768 8.73485 66.4574 9.86364C67.1468 10.9848 67.4953 12.303 67.5028 13.8182H61.6847C61.6013 12.9015 61.3362 12.2045 60.8892 11.7273C60.4498 11.2424 59.8816 11 59.1847 11C58.6392 11 58.1619 11.1591 57.7528 11.4773C57.3438 11.7879 57.0256 12.2614 56.7983 12.8977C56.571 13.5265 56.4574 14.3182 56.4574 15.2727C56.4574 16.2273 56.571 17.0227 56.7983 17.6591C57.0256 18.2879 57.3438 18.7614 57.7528 19.0795C58.1619 19.3902 58.6392 19.5455 59.1847 19.5455C59.6468 19.5455 60.0559 19.4394 60.4119 19.2273C60.768 19.0076 61.0559 18.6894 61.2756 18.2727C61.5028 17.8485 61.6392 17.3333 61.6847 16.7273H67.5028C67.4801 18.2652 67.1278 19.6061 66.446 20.75C65.7642 21.8864 64.7983 22.7652 63.5483 23.3864C62.3059 24.0076 60.821 24.3182 59.0938 24.3182ZM75.7273 19.8636L75.7727 12.4091H76.5909L80.8182 6.54545H87.8636L80.7727 15.6818H79L75.7273 19.8636ZM70.0909 24V0.727272H76.3636V24H70.0909ZM80.8636 24L76.8636 17.0909L80.9545 12.6364L88.0455 24H80.8636ZM110.344 56.3636C109.465 56.3636 108.711 56.0568 108.082 55.4432C107.461 54.822 107.154 54.0682 107.162 53.1818C107.154 52.3182 107.461 51.5795 108.082 50.9659C108.711 50.3523 109.465 50.0455 110.344 50.0455C111.177 50.0455 111.912 50.3523 112.548 50.9659C113.192 51.5795 113.518 52.3182 113.526 53.1818C113.518 53.7727 113.363 54.3106 113.06 54.7955C112.764 55.2727 112.378 55.6553 111.901 55.9432C111.423 56.2235 110.904 56.3636 110.344 56.3636Z" fill="#8931F5"/>
<path d="M0.5 56V32.7273H6.77273V41.5909H6.86364C7.09091 41 7.42424 40.4583 7.86364 39.9659C8.30303 39.4659 8.84849 39.0682 9.5 38.7727C10.1515 38.4697 10.9091 38.3182 11.7727 38.3182C12.9242 38.3182 14.0189 38.625 15.0568 39.2386C16.1023 39.8523 16.9508 40.8182 17.6023 42.1364C18.2614 43.4545 18.5909 45.1667 18.5909 47.2727C18.5909 49.2879 18.2765 50.9583 17.6477 52.2841C17.0265 53.6098 16.1932 54.5985 15.1477 55.25C14.1098 55.9015 12.9697 56.2273 11.7273 56.2273C10.9091 56.2273 10.178 56.0947 9.53409 55.8295C8.89773 55.5568 8.35227 55.1894 7.89773 54.7273C7.45076 54.2576 7.10606 53.7273 6.86364 53.1364H6.72727V56H0.5ZM6.63636 47.2727C6.63636 48.1212 6.74621 48.8561 6.96591 49.4773C7.19318 50.0909 7.51136 50.5682 7.92045 50.9091C8.33712 51.2424 8.83333 51.4091 9.40909 51.4091C9.98485 51.4091 10.4735 51.2462 10.875 50.9205C11.2841 50.5871 11.5947 50.1136 11.8068 49.5C12.0265 48.8788 12.1364 48.1364 12.1364 47.2727C12.1364 46.4091 12.0265 45.6705 11.8068 45.0568C11.5947 44.4356 11.2841 43.9621 10.875 43.6364C10.4735 43.303 9.98485 43.1364 9.40909 43.1364C8.83333 43.1364 8.33712 43.303 7.92045 43.6364C7.51136 43.9621 7.19318 44.4356 6.96591 45.0568C6.74621 45.6705 6.63636 46.4091 6.63636 47.2727ZM32.5341 48.3636V38.5455H38.8068V56H32.8523V52.6818H32.6705C32.2917 53.7955 31.6288 54.6667 30.6818 55.2955C29.7348 55.9167 28.6098 56.2273 27.3068 56.2273C26.0871 56.2273 25.0189 55.947 24.1023 55.3864C23.1932 54.8258 22.4848 54.053 21.9773 53.0682C21.4773 52.0833 21.2235 50.9545 21.2159 49.6818V38.5455H27.4886V48.3636C27.4962 49.2273 27.7159 49.9053 28.1477 50.3977C28.5871 50.8902 29.2008 51.1364 29.9886 51.1364C30.5114 51.1364 30.9621 51.0265 31.3409 50.8068C31.7273 50.5795 32.0227 50.2614 32.2273 49.8523C32.4394 49.4356 32.5417 48.9394 32.5341 48.3636ZM57.9517 44.2273H52.179C52.1487 43.8712 52.0237 43.5644 51.804 43.3068C51.5843 43.0492 51.3002 42.8523 50.9517 42.7159C50.6108 42.572 50.232 42.5 49.8153 42.5C49.2775 42.5 48.8153 42.5985 48.429 42.7955C48.0426 42.9924 47.8532 43.2727 47.8608 43.6364C47.8532 43.8939 47.9631 44.1326 48.1903 44.3523C48.4252 44.572 48.8759 44.7424 49.5426 44.8636L53.0881 45.5C54.8759 45.8258 56.2055 46.375 57.0767 47.1477C57.9555 47.9129 58.3987 48.9394 58.4062 50.2273C58.3987 51.4697 58.0275 52.5492 57.2926 53.4659C56.5653 54.375 55.5691 55.0795 54.304 55.5795C53.0464 56.072 51.6108 56.3182 49.9972 56.3182C47.3305 56.3182 45.2434 55.7727 43.7358 54.6818C42.2358 53.5909 41.3987 52.1515 41.2244 50.3636H47.4517C47.535 50.9167 47.8078 51.3447 48.2699 51.6477C48.7396 51.9432 49.3305 52.0909 50.0426 52.0909C50.6184 52.0909 51.0919 51.9924 51.4631 51.7955C51.8419 51.5985 52.035 51.3182 52.0426 50.9545C52.035 50.6212 51.8684 50.3561 51.5426 50.1591C51.2244 49.9621 50.7244 49.803 50.0426 49.6818L46.9517 49.1364C45.1714 48.8258 43.8381 48.2348 42.9517 47.3636C42.0653 46.4924 41.6259 45.3712 41.6335 44C41.6259 42.7879 41.9441 41.7614 42.5881 40.9205C43.2396 40.072 44.1676 39.428 45.3722 38.9886C46.5843 38.5417 48.0199 38.3182 49.679 38.3182C52.2017 38.3182 54.1903 38.8409 55.6449 39.8864C57.107 40.9318 57.8759 42.3788 57.9517 44.2273ZM71.2188 38.5455V43.0909H59.7188V38.5455H71.2188ZM61.946 34.3636H68.2188V50.3864C68.2188 50.6288 68.2604 50.8333 68.3438 51C68.4271 51.1591 68.5559 51.2803 68.7301 51.3636C68.9044 51.4394 69.1278 51.4773 69.4006 51.4773C69.59 51.4773 69.8097 51.4545 70.0597 51.4091C70.3172 51.3636 70.5066 51.3258 70.6278 51.2955L71.5369 55.7045C71.2566 55.7879 70.8551 55.8902 70.3324 56.0114C69.8172 56.1326 69.2036 56.2121 68.4915 56.25C67.0521 56.3258 65.8438 56.178 64.8665 55.8068C63.8892 55.428 63.1544 54.8333 62.6619 54.0227C62.1695 53.2121 61.9309 52.197 61.946 50.9773V34.3636ZM81.9545 56.3182C80.0909 56.3182 78.4848 55.9621 77.1364 55.25C75.7955 54.5303 74.7614 53.5 74.0341 52.1591C73.3144 50.8106 72.9545 49.197 72.9545 47.3182C72.9545 45.5152 73.3182 43.9394 74.0455 42.5909C74.7727 41.2424 75.7992 40.1932 77.125 39.4432C78.4508 38.6932 80.0152 38.3182 81.8182 38.3182C83.1364 38.3182 84.3295 38.5227 85.3977 38.9318C86.4659 39.3409 87.3788 39.9356 88.1364 40.7159C88.8939 41.4886 89.4773 42.428 89.8864 43.5341C90.2955 44.6402 90.5 45.8864 90.5 47.2727V48.7273H74.9091V45.2727H84.7273C84.7197 44.7727 84.5909 44.3333 84.3409 43.9545C84.0985 43.5682 83.7689 43.2689 83.3523 43.0568C82.9432 42.8371 82.4773 42.7273 81.9545 42.7273C81.447 42.7273 80.9811 42.8371 80.5568 43.0568C80.1326 43.2689 79.7917 43.5644 79.5341 43.9432C79.2841 44.322 79.1515 44.7652 79.1364 45.2727V49C79.1364 49.5606 79.2538 50.0606 79.4886 50.5C79.7235 50.9394 80.0606 51.2841 80.5 51.5341C80.9394 51.7841 81.4697 51.9091 82.0909 51.9091C82.5227 51.9091 82.9167 51.8485 83.2727 51.7273C83.6364 51.6061 83.947 51.4318 84.2045 51.2045C84.4621 50.9697 84.6515 50.6894 84.7727 50.3636H90.5C90.303 51.5758 89.8371 52.6288 89.1023 53.5227C88.3674 54.4091 87.3939 55.0985 86.1818 55.5909C84.9773 56.0758 83.5682 56.3182 81.9545 56.3182ZM93.0597 56V38.5455H99.1506V41.8636H99.3324C99.6506 40.6364 100.154 39.7386 100.844 39.1705C101.541 38.6023 102.355 38.3182 103.287 38.3182C103.56 38.3182 103.829 38.3409 104.094 38.3864C104.366 38.4242 104.628 38.4811 104.878 38.5568V43.9091C104.567 43.803 104.185 43.7235 103.73 43.6705C103.276 43.6174 102.885 43.5909 102.56 43.5909C101.946 43.5909 101.393 43.7311 100.901 44.0114C100.416 44.2841 100.033 44.6705 99.7528 45.1705C99.4725 45.6629 99.3324 46.2424 99.3324 46.9091V56H93.0597Z" fill="#F9F5FF"/>
</svg>
