<svg width="1792" height="84" viewBox="0 0 1792 84" fill="none" xmlns="http://www.w3.org/2000/svg">
<rect x="788" y="36" width="40" height="40" rx="20" fill="#F9F5FF"/>
<path d="M799.76 49.8199L799.76 62.1799M816.24 60.7799L816.24 51.2099C816.24 49.2499 814.11 48.0199 812.41 48.9999L808.26 51.3899L804.11 53.7899C802.41 54.7699 802.41 57.2199 804.11 58.1999L808.26 60.5999L812.41 62.9899C814.11 63.9699 816.24 62.7499 816.24 60.7799Z" stroke="#8931F5" stroke-width="1.5" stroke-linecap="round" stroke-linejoin="round"/>
<rect x="852" y="28" width="56" height="56" rx="28" fill="#8931F5"/>
<path d="M872 55.9999V52.4399C872 48.0199 875.13 46.2099 878.96 48.4199L882.05 50.1999L885.14 51.9799C888.97 54.1899 888.97 57.8099 885.14 60.0199L882.05 61.7999L878.96 63.5799C875.13 65.7899 872 63.9799 872 59.5599V55.9999Z" stroke="#F9F5FF" stroke-width="1.5" stroke-miterlimit="10" stroke-linecap="round" stroke-linejoin="round"/>
<rect x="932" y="36" width="40" height="40" rx="20" fill="#F9F5FF"/>
<path d="M960.24 62.1801V49.8201M943.76 51.2201V60.7901C943.76 62.7501 945.89 63.9801 947.59 63.0001L951.74 60.6101L955.89 58.2101C957.59 57.2301 957.59 54.7801 955.89 53.8001L951.74 51.4001L947.59 49.0101C945.89 48.0301 943.76 49.2501 943.76 51.2201Z" stroke="#8931F5" stroke-width="1.5" stroke-linecap="round" stroke-linejoin="round"/>
<path d="M48 53.9998V57.9998C48 59.9998 49 60.9998 51 60.9998H52.43C52.8 60.9998 53.17 61.1098 53.49 61.2998L56.41 63.1298C58.93 64.7098 61 63.5598 61 60.5898V51.4098C61 48.4298 58.93 47.2898 56.41 48.8698L53.49 50.6998C53.17 50.8898 52.8 50.9998 52.43 50.9998H51C49 50.9998 48 51.9998 48 53.9998Z" stroke="#F9F5FF" stroke-width="1.5"/>
<path d="M64 52C64.8665 53.1535 65.335 54.5573 65.335 56C65.335 57.4427 64.8665 58.8465 64 60M65.83 49.5C67.2369 51.375 67.9975 53.6559 67.9975 56C67.9975 58.3441 67.2369 60.625 65.83 62.5" stroke="#F9F5FF" stroke-width="1.5" stroke-linecap="round" stroke-linejoin="round"/>
<rect x="82" y="54" width="94" height="4" rx="2" fill="#F9F5FF"/>
<line x1="2" y1="2" x2="1790" y2="2" stroke="#F9F5FF" stroke-width="4" stroke-linecap="round"/>
<line x1="2" y1="2" x2="794" y2="2" stroke="#8931F5" stroke-width="4" stroke-linecap="round"/>
</svg>
