<svg width="56" height="56" viewBox="0 0 56 56" fill="none" xmlns="http://www.w3.org/2000/svg">
<rect width="56" height="56" fill="#F9F5FF"/>
<path d="M18 19.5C18 18.948 18.455 18.5 18.992 18.5H37.008C37.556 18.5 38 18.945 38 19.5V33.5C38 34.052 37.545 34.5 37.008 34.5H18.992C18.8611 34.4997 18.7316 34.4736 18.6109 34.4232C18.4901 34.3727 18.3805 34.2989 18.2883 34.206C18.1962 34.1131 18.1232 34.0029 18.0738 33.8818C18.0243 33.7606 17.9992 33.6309 18 33.5V19.5ZM20 20.5V32.5H36V20.5H20ZM21 35.5H35V37.5H21V35.5Z" fill="#322A3D"/>
</svg>
