<svg width="56" height="56" viewBox="0 0 56 56" fill="none" xmlns="http://www.w3.org/2000/svg">
<rect width="56" height="56" fill="#F9F5FF"/>
<path d="M23 20V36H33V20H23ZM22 18H34C34.2652 18 34.5196 18.1054 34.7071 18.2929C34.8946 18.4804 35 18.7348 35 19V37C35 37.2652 34.8946 37.5196 34.7071 37.7071C34.5196 37.8946 34.2652 38 34 38H22C21.7348 38 21.4804 37.8946 21.2929 37.7071C21.1054 37.5196 21 37.2652 21 37V19C21 18.7348 21.1054 18.4804 21.2929 18.2929C21.4804 18.1054 21.7348 18 22 18ZM28 33C28.2652 33 28.5196 33.1054 28.7071 33.2929C28.8946 33.4804 29 33.7348 29 34C29 34.2652 28.8946 34.5196 28.7071 34.7071C28.5196 34.8946 28.2652 35 28 35C27.7348 35 27.4804 34.8946 27.2929 34.7071C27.1054 34.5196 27 34.2652 27 34C27 33.7348 27.1054 33.4804 27.2929 33.2929C27.4804 33.1054 27.7348 33 28 33Z" fill="#322A3D"/>
</svg>
