<svg width="22" height="18" viewBox="0 0 22 18" fill="none" xmlns="http://www.w3.org/2000/svg">
<path d="M1 6.99979V10.9998C1 12.9998 2 13.9998 4 13.9998H5.43C5.8 13.9998 6.17 14.1098 6.49 14.2998L9.41 16.1298C11.93 17.7098 14 16.5598 14 13.5898V4.40979C14 1.42979 11.93 0.289789 9.41 1.86979L6.49 3.69979C6.17 3.88979 5.8 3.99979 5.43 3.99979H4C2 3.99979 1 4.99979 1 6.99979Z" stroke="#F9F5FF" stroke-width="1.5"/>
<path d="M17 5C17.8665 6.15354 18.335 7.55726 18.335 9C18.335 10.4427 17.8665 11.8465 17 13M18.83 2.5C20.2369 4.37499 20.9975 6.65586 20.9975 9C20.9975 11.3441 20.2369 13.625 18.83 15.5" stroke="#F9F5FF" stroke-width="1.5" stroke-linecap="round" stroke-linejoin="round"/>
</svg>
